<?xml version="1.0" encoding="UTF-8"?>
<svg width="500px" height="500px" viewBox="0 0 500 500" version="1.1" xmlns="http://www.w3.org/2000/svg" xmlns:xlink="http://www.w3.org/1999/xlink">
    <!-- Generator: Sketch 58 (84663) - https://sketch.com -->
    <title>Artboard</title>
    <desc>Created with Sketch.</desc>
    <defs>
        <linearGradient x1="0%" y1="0%" x2="100%" y2="100%" id="linearGradient-1">
            <stop stop-color="#FF9A3D" offset="0%"></stop>
            <stop stop-color="#FF1A00" offset="100%"></stop>
        </linearGradient>
    </defs>
    <g id="Artboard" stroke="none" stroke-width="1" fill="none" fill-rule="evenodd">
        <rect id="Rectangle" fill="url(#linearGradient-1)" x="0" y="0" width="500" height="500" rx="75"></rect>
        <path d="M119.229063,284.84375 C121.760313,284.84375 123.447813,283.109375 123.447813,280.484375 L123.447813,257.234375 L139.619688,257.234375 L153.166563,282.125 C154.244688,284.140625 155.369688,284.84375 157.291563,284.84375 C159.729063,284.84375 161.604063,283.15625 161.604063,280.953125 C161.604063,280.015625 161.369688,279.171875 160.713438,278 L148.338438,255.921875 C156.822813,253.25 161.932188,245.9375 161.932188,236.515625 C161.932188,224.328125 153.400938,216.359375 140.369688,216.359375 L119.229063,216.359375 C116.650938,216.359375 115.010313,218.046875 115.010313,220.71875 L115.010313,280.484375 C115.010313,283.109375 116.697813,284.84375 119.229063,284.84375 Z M123.447813,249.78125 L123.447813,223.859375 L139.244688,223.859375 C147.963438,223.859375 153.213438,228.6875 153.213438,236.796875 C153.213438,245.09375 148.291563,249.78125 139.619688,249.78125 L123.447813,249.78125 Z M172.184313,284.65625 C174.293688,284.65625 175.512438,283.671875 176.309313,281.421875 L182.262438,264.640625 L209.028063,264.640625 L215.028063,281.421875 C215.824938,283.671875 217.043688,284.65625 219.153063,284.65625 C221.590563,284.65625 223.371813,283.109375 223.371813,280.953125 C223.371813,280.34375 223.231188,279.640625 222.856188,278.609375 L201.059313,219.734375 C200.028063,216.96875 198.340563,215.703125 195.762438,215.703125 C192.996813,215.703125 191.262438,217.015625 190.231188,219.78125 L168.481188,278.609375 C168.106188,279.640625 167.965563,280.34375 167.965563,280.953125 C167.965563,283.109375 169.746813,284.65625 172.184313,284.65625 Z M184.699938,257.46875 L195.528063,226.625 L195.809313,226.625 L206.637438,257.46875 L184.699938,257.46875 Z M236.155188,284.65625 C238.733313,284.65625 240.373938,282.96875 240.373938,280.296875 L240.373938,259.859375 L255.983313,259.859375 C268.686438,259.859375 277.733313,250.90625 277.733313,238.0625 C277.733313,225.265625 268.780188,216.359375 256.077063,216.359375 L236.155188,216.359375 C233.577063,216.359375 231.936438,218.046875 231.936438,220.71875 L231.936438,280.296875 C231.936438,282.96875 233.577063,284.65625 236.155188,284.65625 Z M240.373938,252.359375 L240.373938,223.859375 L253.873938,223.859375 C263.577063,223.859375 269.061438,229.109375 269.061438,238.0625 C269.061438,247.0625 263.530188,252.359375 253.873938,252.359375 L240.373938,252.359375 Z M291.032313,284.65625 C293.610438,284.65625 295.251063,282.96875 295.251063,280.296875 L295.251063,259.859375 L310.860438,259.859375 C323.563563,259.859375 332.610438,250.90625 332.610438,238.0625 C332.610438,225.265625 323.657313,216.359375 310.954188,216.359375 L291.032313,216.359375 C288.454188,216.359375 286.813563,218.046875 286.813563,220.71875 L286.813563,280.296875 C286.813563,282.96875 288.454188,284.65625 291.032313,284.65625 Z M295.251063,252.359375 L295.251063,223.859375 L308.751063,223.859375 C318.454188,223.859375 323.938563,229.109375 323.938563,238.0625 C323.938563,247.0625 318.407313,252.359375 308.751063,252.359375 L295.251063,252.359375 Z M363.862563,285.125 C351.159438,285.125 342.112563,279.40625 339.581313,271.25 C339.300063,270.3125 339.112563,269.28125 339.112563,268.296875 C339.112563,265.625 340.612563,263.9375 343.003188,263.9375 C345.037228,263.9375 346.330296,264.939991 347.008482,267.029034 L347.081313,267.265625 C349.143813,274.25 355.800063,277.53125 364.331313,277.53125 C373.518813,277.53125 380.175063,272.703125 380.175063,266.046875 C380.175063,260.375 376.425063,256.625 367.050063,254.5625 L359.550063,252.921875 C346.003188,249.96875 340.143813,243.828125 340.143813,234.21875 C340.143813,223.0625 349.987563,215.234375 364.003188,215.234375 C375.300063,215.234375 384.393813,220.90625 386.831313,230.046875 C386.971938,230.5625 387.065688,231.265625 387.065688,232.15625 C387.065688,234.453125 385.471938,235.953125 383.221938,235.953125 C381.145549,235.953125 379.851567,234.909915 379.08885,232.90721 L379.003188,232.671875 C376.659438,225.828125 371.081313,222.828125 363.768813,222.828125 C355.331313,222.828125 348.815688,226.953125 348.815688,233.84375 C348.815688,239.1875 352.425063,242.84375 361.659438,244.859375 L369.159438,246.5 C383.268813,249.59375 388.846938,255.21875 388.846938,264.78125 C388.846938,277.296875 379.003188,285.125 363.862563,285.125 Z" id="RAPPS" fill="#FFFFFF" fill-rule="nonzero"></path>
    </g>
</svg>